<?xml version="1.0" encoding="UTF-8" standalone="no"?>
<svg
   xmlns:dc="http://purl.org/dc/elements/1.1/"
   xmlns:cc="http://creativecommons.org/ns#"
   xmlns:rdf="http://www.w3.org/1999/02/22-rdf-syntax-ns#"
   xmlns:svg="http://www.w3.org/2000/svg"
   xmlns="http://www.w3.org/2000/svg"
   xmlns:sodipodi="http://sodipodi.sourceforge.net/DTD/sodipodi-0.dtd"
   xmlns:inkscape="http://www.inkscape.org/namespaces/inkscape"
   version="1.0"
   width="240.750000pt"
   height="65.250000pt"
   viewBox="0 0 240.750000 65.250000"
   preserveAspectRatio="xMidYMid meet"
   id="svg4341"
   inkscape:version="0.91 r13725"
   sodipodi:docname="logo.svg">
  <metadata
     id="metadata4399">
    <rdf:RDF>
      <cc:Work
         rdf:about="">
        <dc:format>image/svg+xml</dc:format>
        <dc:type
           rdf:resource="http://purl.org/dc/dcmitype/StillImage" />
        <dc:title></dc:title>
      </cc:Work>
    </rdf:RDF>
  </metadata>
  <defs
     id="defs4397" />
  <sodipodi:namedview
     pagecolor="#000000"
     bordercolor="#666666"
     borderopacity="1"
     objecttolerance="10"
     gridtolerance="10"
     guidetolerance="10"
     inkscape:pageopacity="0"
     inkscape:pageshadow="2"
     inkscape:window-width="2385"
     inkscape:window-height="1386"
     id="namedview4395"
     showgrid="false"
     inkscape:zoom="3.7948079"
     inkscape:cx="105.48703"
     inkscape:cy="23.701331"
     inkscape:window-x="329"
     inkscape:window-y="116"
     inkscape:window-maximized="0"
     inkscape:current-layer="g4347" />
  <g
     transform="translate(0.000000,65.250000) scale(0.075000,-0.075000)"
     fill="#ff5a28"
     stroke="none"
     id="g4343" />
  <g
     transform="translate(0.000000,65.250000) scale(0.075000,-0.075000)"
     fill="#cb4820"
     stroke="none"
     id="g4345" />
  <g
     transform="translate(0.000000,65.250000) scale(0.075000,-0.075000)"
     id="g4347"
     stroke="none"
     fill="#ffffff">
    <path
       d="m 2614.3875,845 c -40.3567,2 -84.8526,1 -99.3396,-1 -14.4871,-3 -36.2176,-7 -48.6351,-9 -23.8001,-5 -23.8001,-8 -23.8001,-149 l 0,-143 36.2176,-10 36.2176,-11 0,123 c 0,84 4.1391,126 12.4174,131 6.2087,4 41.3915,7 77.6091,6 43.4611,0 77.6091,-7 99.3396,-19 18.6262,-10 43.4611,-38 56.9134,-63 13.4522,-27 22.7653,-62 22.7653,-90 0,-25 -5.1739,-62 -10.3479,-82 -6.2087,-20 -23.8001,-50 -40.3567,-65 l -28.9741,-28 23.8002,-18 c 12.4174,-9 27.9392,-17 33.1132,-17 4.1391,0 20.6957,12 35.1828,28 14.487,15 35.1827,43 45.5306,62 13.4523,25 18.6262,57 18.6262,110 0,41 -5.1739,91 -12.4175,111 -7.2435,19 -27.9392,50 -46.5654,67 -17.5914,17 -51.7394,38 -73.4699,47 -22.7654,9 -74.5048,18 -113.8267,20 z"
       id="path4353"
       inkscape:connector-curvature="0" />
    <path
       d="m 60.621713,840 -40.621716,0 0,-195 c 0,-149 3.481861,-195 15.088066,-195 6.963723,0 25.53365,3 40.621716,6 25.533651,6 25.533651,8 25.533651,195 l 0,189 -40.621717,0 z"
       id="path4355"
       inkscape:connector-curvature="0" />
    <path
       d="m 1844.1751,840 c -24.4488,0 -38.8958,-5 -38.8958,-12 1.1113,-7 18.8922,-85 42.2297,-173 37.7844,-144 43.341,-160 63.3445,-157 12.2244,2 26.6714,8 32.2279,13 6.6678,6 0,60 -18.8922,146 -16.6696,76 -33.3392,148 -36.6732,161 -3.3339,18 -12.2243,22 -43.3409,22 z"
       id="path4357"
       inkscape:connector-curvature="0" />
    <path
       d="m 2304.7376,840 c -21.1722,0 -39.0015,-1 -39.0015,-2 0,-2 -14.4863,-65 -31.2013,-140 l -31.2012,-137 33.4299,6 c 18.9436,3 35.6586,7 37.8872,9 2.2287,1 15.6006,51 31.2013,111 14.4862,59 28.9725,118 32.3155,131 5.5717,20 2.2287,22 -33.4299,22 z"
       id="path4359"
       inkscape:connector-curvature="0" />
    <path
       d="m 640.24658,644.97408 c -34.1798,2.08401 -81.17702,-1.042 -103.60752,-7.294 -28.8392,-7.29401 -39.52039,-15.63002 -35.24792,-26.05003 3.20436,-8.33601 6.40872,-19.79802 6.40872,-23.96603 0,-5.21 29.90732,-7.29401 67.29148,-3.126 51.2697,4.168 75.83643,2.084 102.5394,-11.46201 20.29426,-10.42002 40.58851,-32.30204 50.20158,-53.14206 8.54495,-19.79802 14.95366,-61.47807 14.95366,-93.7801 0,-47.93205 -3.20435,-59.39407 -20.29425,-65.64607 -18.15802,-6.25201 -12.81743,-11.46201 33.11168,-35.42804 l 53.40594,-28.13403 -3.20436,123.99813 c -3.20436,105.24212 -7.47683,128.16614 -26.70297,152.13217 -11.7493,15.63001 -34.1798,37.51204 -49.13346,48.97405 -17.0899,12.50401 -49.13346,20.84002 -89.72198,22.92402 z"
       id="path4361"
       inkscape:connector-curvature="0" />
    <path
       d="m 1526.9363,649 c -23.4054,-1 -58.5135,-5 -77.6635,-9 -19.1498,-4 -37.2358,-10 -40.4275,-13 -3.1917,-3 -3.1917,-15 1.0639,-26 6.3833,-19 12.7666,-20 69.1524,-14 41.4914,4 74.4718,1 95.7494,-7 18.0861,-7 40.4276,-26 50.0026,-43 8.511,-17 19.1498,-56 21.2776,-87 4.2556,-42 2.1278,-60 -8.511,-66 -8.5111,-5 -51.0664,-9 -95.7495,-9 -69.1524,0 -86.1745,-4 -123.4105,-27 -23.4054,-14 -50.0025,-42 -59.5774,-61 -10.6388,-19 -18.086,-54 -18.086,-77 0,-34 3.1916,-41 17.0221,-36 9.5749,3 23.4054,6 30.8526,6 8.5111,0 17.0221,17 21.2777,40 4.2555,22 15.9582,50 27.661,63 10.6388,14 40.4275,29 65.9607,35 25.5332,6 63.833,9 86.1745,5 21.2777,-3 43.6192,-14 48.9386,-23 5.3194,-10 6.3834,-21 2.1278,-25 -4.2555,-5 10.6388,4 34.0443,20 l 40.4275,29 -4.2555,105 c -2.1277,83 -8.5111,114 -24.4693,141 -12.7666,21 -40.4276,44 -69.1524,58 -27.661,13 -64.8969,22 -90.4301,21 z"
       id="path4363"
       inkscape:connector-curvature="0" />
    <path
       d="m 916.02575,630 -40.6025,0 25.64368,-102 c 14.95882,-57 41.67103,-156 59.83534,-221 28.84918,-103 36.32862,-120 59.83533,-128 14.9588,-5 27.7807,-8 29.9176,-6 2.137,2 -14.9588,84 -38.4655,183 -23.50674,98 -45.945,200 -49.15046,227 -7.4794,47 -7.4794,47 -47.01349,47 z"
       id="path4365"
       inkscape:connector-curvature="0" />
    <path
       d="m 1254.6668,630 c -17,0 -32,-6 -34,-12 -2,-7 -12,-53 -21,-101 -9,-48 -31,-148 -49,-222 l -33,-135 24,0 c 15,0 26,8 32,23 5,12 30,108 55,212 26,105 49,200 52,213 4,19 0,22 -26,22 z"
       id="path4367"
       inkscape:connector-curvature="0" />
  </g>
  <g
     transform="translate(0.000000,65.250000) scale(0.075000,-0.075000)"
     fill="#ff3c00"
     stroke="none"
     id="g4369">
    <path
       d="m 2233.3336,540 c -27,0 -46,-5 -49,-12 -3,-7 -18,-67 -35,-133 -17,-66 -38,-143 -46,-171 -9,-31 -20,-51 -29,-51 -8,0 -17,7 -19,16 -3,9 -22,79 -42,156 -20,77 -37,141 -38,142 -1,2 -21,-5 -44,-14 -28,-10 -42,-22 -42,-34 0,-10 23,-94 50,-186 28,-92 55,-183 61,-200 10,-33 11,-33 75,-33 35,0 64,2 64,5 0,3 25,88 55,188 30,100 61,215 69,255 l 14,72 -44,0 z"
       id="path4371"
       inkscape:connector-curvature="0" />
    <path
       d="m 2456.667,510 c -20,0 -20,-5 -20,-245 l 0,-245 55,0 55,0 0,159 0,159 50,4 c 28,1 55,2 60,0 5,-2 25,-31 44,-65 18,-34 51,-106 72,-159 l 39,-98 52,0 52,0 -14,38 c -7,20 -19,50 -27,66 -7,17 -37,77 -65,135 -41,83 -61,113 -94,136 -35,26 -50,30 -102,30 -61,0 -62,1 -65,28 -3,22 -12,32 -37,43 -19,8 -44,14 -55,14 z"
       id="path4373"
       inkscape:connector-curvature="0" />
    <path
       d="M82 429 c-15 -1 -35 -3 -44 -6 -16 -4 -18 -22 -18 -204 l0 -199 180 0 180 0 0 40 0 39 -132 3 -133 3 -3 163 -2 162 -28 -1z"
       id="path4377" />
    <path
       d="m 572.33334,383 c -11,3 -37,-3 -58,-14 -28,-15 -45,-34 -63,-72 -16,-35 -24,-70 -24,-107 0,-32 8,-72 19,-95 10,-22 27,-48 38,-58 18,-15 38,-17 169,-15 l 149,3 3,117 3,117 -34,25 c -18,14 -67,41 -108,60 -41,18 -83,36 -94,39 z m 100,-74 c 16,-5 31,-9 33,-9 1,0 1,-48 0,-107 l -3,-108 -58,-3 c -55,-3 -60,-1 -92,31 -29,29 -35,43 -35,76 0,23 7,55 15,71 11,22 28,33 63,43 31,9 57,11 77,6 z"
       id="path4379"
       inkscape:connector-curvature="0" />
    <path
       d="m 1715.0002,290 c -4,0 -27,-13 -50,-28 l -42,-27 -3,-75 -3,-75 -52,-3 c -33,-2 -63,3 -83,13 -17,9 -36,27 -42,41 -7,15 -17,23 -26,19 -7,-3 -21,-5 -30,-5 -9,0 -23,-4 -31,-9 -12,-8 -12,-14 -2,-39 7,-16 25,-42 40,-56 l 28,-27 149,3 149,3 3,133 c 1,72 -1,132 -5,132 z"
       id="path4381"
       inkscape:connector-curvature="0" />
    <path
       d="m 1041.6668,146 -55.00003,4 21.00003,-65 21,-65 57,0 57,0 16,47 c 9,26 16,50 16,55 0,4 -15,8 -33,8 -19,0 -36,3 -40,6 -3,3 -30,8 -60,10 z"
       id="path4383"
       inkscape:connector-curvature="0" />
  </g>
</svg>
